{
	"asset":{
		"generator":"Khronos glTF Blender I/O v4.3.47",
		"version":"2.0"
	},
	"extensionsUsed":[
		"KHR_materials_clearcoat",
		"KHR_materials_transmission"
	],
	"scene":0,
	"scenes":[
		{
			"name":"Scene",
			"nodes":[
				0,
				1,
				2,
				3,
				4,
				5,
				6,
				7,
				8,
				9,
				10,
				11,
				12,
				13,
				14,
				15,
				16
			]
		}
	],
	"nodes":[
		{
			"name":"Sketchfab_model",
			"rotation":[
				-0.5,
				-0.5,
				-0.5,
				0.5
			]
		},
		{
			"name":"root",
			"rotation":[
				-0.5000001788139343,
				-0.4999999403953552,
				-0.5000000596046448,
				0.4999999403953552
			]
		},
		{
			"name":"GLTF_SceneRootNode",
			"rotation":[
				0,
				-0.7071068286895752,
				0,
				0.7071067094802856
			]
		},
		{
			"name":"laptop_0",
			"rotation":[
				0.5000001788139343,
				-0.4999999403953552,
				0.5000000596046448,
				0.4999999403953552
			]
		},
		{
			"mesh":0,
			"name":"Object_4",
			"rotation":[
				0.5000001788139343,
				-0.4999999403953552,
				0.5000000596046448,
				0.4999999403953552
			]
		},
		{
			"name":"laptop.001_1",
			"rotation":[
				0.5000001788139343,
				-0.4999999403953552,
				0.5000000596046448,
				0.4999999403953552
			]
		},
		{
			"mesh":1,
			"name":"Object_6",
			"rotation":[
				0.5000001788139343,
				-0.4999999403953552,
				0.5000000596046448,
				0.4999999403953552
			],
			"translation":[
				-12.461982727050781,
				0,
				0
			]
		},
		{
			"name":"laptop.002_2",
			"rotation":[
				0.5000001788139343,
				-0.4999999403953552,
				0.5000000596046448,
				0.4999999403953552
			]
		},
		{
			"mesh":2,
			"name":"Object_8",
			"rotation":[
				0.5000001788139343,
				-0.4999999403953552,
				0.5000000596046448,
				0.4999999403953552
			]
		},
		{
			"name":"Sketchfab_model.001",
			"rotation":[
				-0.7071068286895752,
				0,
				0,
				0.7071068286895752
			],
			"scale":[
				0.3187486231327057,
				0.3187486231327057,
				0.3187486231327057
			],
			"translation":[
				4.660527229309082,
				0.06735119223594666,
				2.2747713956050575e-05
			]
		},
		{
			"name":"root.001",
			"rotation":[
				-0.7071068286895752,
				0,
				0,
				0.7071068286895752
			],
			"scale":[
				0.3187486231327057,
				0.3187486231327057,
				0.3187486231327057
			],
			"translation":[
				4.660527229309082,
				0.06735119223594666,
				2.2747713956050575e-05
			]
		},
		{
			"name":"GLTF_SceneRootNode.001",
			"scale":[
				0.3187486231327057,
				0.31874871253967285,
				0.31874871253967285
			],
			"translation":[
				4.660527229309082,
				0.06735119223594666,
				2.2747713956050575e-05
			]
		},
		{
			"name":"Coffe Cup_Parent_3",
			"scale":[
				0.5014939904212952,
				0.7772704362869263,
				0.5014941096305847
			],
			"translation":[
				4.660527229309082,
				0.8447191715240479,
				2.2878768504597247e-05
			]
		},
		{
			"name":"Cup_0",
			"scale":[
				0.3187486231327057,
				0.31874871253967285,
				0.31874871253967285
			],
			"translation":[
				4.660102367401123,
				0.7805600166320801,
				2.2867949155624956e-05
			]
		},
		{
			"name":"Lid_1",
			"rotation":[
				0,
				-0.7071068286895752,
				0,
				0.7071067094802856
			],
			"scale":[
				0.5194735527038574,
				0.48799365758895874,
				0.5194734930992126
			],
			"translation":[
				4.660527229309082,
				1.4077396392822266,
				-0.00040179549250751734
			]
		},
		{
			"mesh":3,
			"name":"Object_7",
			"rotation":[
				0,
				-0.7071068286895752,
				0,
				0.7071067094802856
			],
			"scale":[
				0.5194735527038574,
				0.48799365758895874,
				0.5194734930992126
			],
			"translation":[
				4.660527229309082,
				1.4077396392822266,
				-0.00040179549250751734
			]
		},
		{
			"name":"Sleeve_2",
			"scale":[
				0.3187486231327057,
				0.31874871253967285,
				0.31874871253967285
			],
			"translation":[
				4.660102367401123,
				0.06735119223594666,
				2.2747713956050575e-05
			]
		}
	],
	"animations":[
		{
			"channels":[
				{
					"sampler":0,
					"target":{
						"node":6,
						"path":"translation"
					}
				}
			],
			"name":"Object_6Action",
			"samplers":[
				{
					"input":21,
					"interpolation":"LINEAR",
					"output":22
				}
			]
		},
		{
			"channels":[
				{
					"sampler":0,
					"target":{
						"node":9,
						"path":"translation"
					}
				}
			],
			"name":"Sketchfab_model.001Action",
			"samplers":[
				{
					"input":23,
					"interpolation":"LINEAR",
					"output":24
				}
			]
		},
		{
			"channels":[
				{
					"sampler":0,
					"target":{
						"node":10,
						"path":"translation"
					}
				}
			],
			"name":"root.001Action",
			"samplers":[
				{
					"input":23,
					"interpolation":"LINEAR",
					"output":25
				}
			]
		},
		{
			"channels":[
				{
					"sampler":0,
					"target":{
						"node":11,
						"path":"translation"
					}
				}
			],
			"name":"GLTF_SceneRootNode.001Action",
			"samplers":[
				{
					"input":23,
					"interpolation":"LINEAR",
					"output":26
				}
			]
		},
		{
			"channels":[
				{
					"sampler":0,
					"target":{
						"node":12,
						"path":"translation"
					}
				}
			],
			"name":"Coffe Cup_Parent_3Action",
			"samplers":[
				{
					"input":23,
					"interpolation":"LINEAR",
					"output":27
				}
			]
		},
		{
			"channels":[
				{
					"sampler":0,
					"target":{
						"node":13,
						"path":"translation"
					}
				}
			],
			"name":"Cup_0Action",
			"samplers":[
				{
					"input":23,
					"interpolation":"LINEAR",
					"output":28
				}
			]
		},
		{
			"channels":[
				{
					"sampler":0,
					"target":{
						"node":14,
						"path":"translation"
					}
				}
			],
			"name":"Lid_1Action",
			"samplers":[
				{
					"input":23,
					"interpolation":"LINEAR",
					"output":29
				}
			]
		},
		{
			"channels":[
				{
					"sampler":0,
					"target":{
						"node":15,
						"path":"translation"
					}
				}
			],
			"name":"Object_7Action",
			"samplers":[
				{
					"input":21,
					"interpolation":"LINEAR",
					"output":30
				}
			]
		},
		{
			"channels":[
				{
					"sampler":0,
					"target":{
						"node":16,
						"path":"translation"
					}
				}
			],
			"name":"Sleeve_2Action",
			"samplers":[
				{
					"input":23,
					"interpolation":"LINEAR",
					"output":31
				}
			]
		}
	],
	"materials":[
		{
			"doubleSided":true,
			"name":"palette",
			"pbrMetallicRoughness":{
				"baseColorTexture":{
					"index":0
				},
				"metallicFactor":0,
				"roughnessFactor":0.395455002784729
			}
		},
		{
			"alphaMode":"BLEND",
			"doubleSided":true,
			"emissiveFactor":[
				0.04326950013637543,
				0.07480540126562119,
				0.10000000149011612
			],
			"extensions":{
				"KHR_materials_clearcoat":{
					"clearcoatFactor":1,
					"clearcoatRoughnessFactor":0.03999999910593033
				},
				"KHR_materials_transmission":{
					"transmissionFactor":0.4693148732185364
				}
			},
			"name":"palette.001",
			"pbrMetallicRoughness":{
				"baseColorFactor":[
					1,
					1,
					1,
					0.5306851267814636
				],
				"baseColorTexture":{
					"index":1
				},
				"metallicFactor":0,
				"roughnessFactor":0.43340232968330383
			}
		},
		{
			"doubleSided":true,
			"emissiveFactor":[
				0.03656003624200821,
				0.05562521517276764,
				0.06914699077606201
			],
			"name":"palette.002",
			"pbrMetallicRoughness":{
				"baseColorTexture":{
					"index":2
				},
				"roughnessFactor":0.6772729754447937
			}
		},
		{
			"doubleSided":true,
			"name":"material_1",
			"pbrMetallicRoughness":{
				"baseColorFactor":[
					0.800000011920929,
					0.800000011920929,
					0.800000011920929,
					1
				],
				"metallicFactor":0,
				"roughnessFactor":0.5
			}
		},
		{
			"doubleSided":true,
			"name":"material",
			"pbrMetallicRoughness":{
				"baseColorFactor":[
					0.9213560223579407,
					0.1397988200187683,
					0.1397988200187683,
					1
				]
			}
		},
		{
			"doubleSided":true,
			"name":"Sleeve",
			"pbrMetallicRoughness":{
				"baseColorFactor":[
					1,
					0.8732783794403076,
					0.5612388253211975,
					1
				]
			}
		}
	],
	"meshes":[
		{
			"name":"Object_0",
			"primitives":[
				{
					"attributes":{
						"POSITION":0,
						"NORMAL":1,
						"TEXCOORD_0":2
					},
					"indices":3,
					"material":0
				}
			]
		},
		{
			"name":"Object_1",
			"primitives":[
				{
					"attributes":{
						"POSITION":4,
						"NORMAL":5,
						"TEXCOORD_0":6
					},
					"indices":7,
					"material":1
				}
			]
		},
		{
			"name":"Object_2",
			"primitives":[
				{
					"attributes":{
						"POSITION":8,
						"NORMAL":9,
						"TEXCOORD_0":10
					},
					"indices":11,
					"material":2
				}
			]
		},
		{
			"name":"Object_1.001",
			"primitives":[
				{
					"attributes":{
						"POSITION":12,
						"NORMAL":13
					},
					"indices":14,
					"material":3
				},
				{
					"attributes":{
						"POSITION":15,
						"NORMAL":16
					},
					"indices":17,
					"material":4
				},
				{
					"attributes":{
						"POSITION":18,
						"NORMAL":19
					},
					"indices":20,
					"material":5
				}
			]
		}
	],
	"textures":[
		{
			"sampler":0,
			"source":0
		},
		{
			"sampler":0,
			"source":0
		},
		{
			"sampler":0,
			"source":0
		}
	],
	"images":[
		{
			"mimeType":"image/png",
			"name":"palette_baseColor",
			"uri":"palette_baseColor.png"
		}
	],
	"accessors":[
		{
			"bufferView":0,
			"componentType":5126,
			"count":960,
			"max":[
				2.0999999046325684,
				2.4000000953674316,
				0
			],
			"min":[
				-2.0999999046325684,
				-3.200000047683716,
				-4.199999809265137
			],
			"type":"VEC3"
		},
		{
			"bufferView":1,
			"componentType":5126,
			"count":960,
			"type":"VEC3"
		},
		{
			"bufferView":2,
			"componentType":5126,
			"count":960,
			"type":"VEC2"
		},
		{
			"bufferView":3,
			"componentType":5123,
			"count":2682,
			"type":"SCALAR"
		},
		{
			"bufferView":4,
			"componentType":5126,
			"count":1052,
			"max":[
				-0.09999989718198776,
				-1.2999999523162842,
				-0.699999988079071
			],
			"min":[
				-1.2000000476837158,
				-6.599999904632568,
				-4.900000095367432
			],
			"type":"VEC3"
		},
		{
			"bufferView":5,
			"componentType":5126,
			"count":1052,
			"type":"VEC3"
		},
		{
			"bufferView":6,
			"componentType":5126,
			"count":1052,
			"type":"VEC2"
		},
		{
			"bufferView":7,
			"componentType":5123,
			"count":3000,
			"type":"SCALAR"
		},
		{
			"bufferView":8,
			"componentType":5126,
			"count":383,
			"max":[
				-1.899999976158142,
				2.200000047683716,
				-0.4000000059604645
			],
			"min":[
				-1.899999976158142,
				-3,
				-4
			],
			"type":"VEC3"
		},
		{
			"bufferView":9,
			"componentType":5126,
			"count":383,
			"type":"VEC3"
		},
		{
			"bufferView":10,
			"componentType":5126,
			"count":383,
			"type":"VEC2"
		},
		{
			"bufferView":11,
			"componentType":5123,
			"count":714,
			"type":"SCALAR"
		},
		{
			"bufferView":12,
			"componentType":5126,
			"count":1905,
			"max":[
				0.9781390428543091,
				0.42822521924972534,
				0.9781391024589539
			],
			"min":[
				-0.9781390428543091,
				0.015947990119457245,
				-0.9781390428543091
			],
			"type":"VEC3"
		},
		{
			"bufferView":13,
			"componentType":5126,
			"count":1905,
			"type":"VEC3"
		},
		{
			"bufferView":14,
			"componentType":5123,
			"count":9600,
			"type":"SCALAR"
		},
		{
			"bufferView":15,
			"componentType":5126,
			"count":898,
			"max":[
				0.9532303214073181,
				0.17629170417785645,
				0.9532297253608704
			],
			"min":[
				-0.951594889163971,
				-2.7467336654663086,
				-0.95159512758255
			],
			"type":"VEC3"
		},
		{
			"bufferView":16,
			"componentType":5126,
			"count":898,
			"type":"VEC3"
		},
		{
			"bufferView":17,
			"componentType":5123,
			"count":5376,
			"type":"SCALAR"
		},
		{
			"bufferView":18,
			"componentType":5126,
			"count":384,
			"max":[
				0.868438184261322,
				-0.5929031372070312,
				0.868437647819519
			],
			"min":[
				-0.8668027520179749,
				-1.9757847785949707,
				-0.8668030500411987
			],
			"type":"VEC3"
		},
		{
			"bufferView":19,
			"componentType":5126,
			"count":384,
			"type":"VEC3"
		},
		{
			"bufferView":20,
			"componentType":5123,
			"count":2304,
			"type":"SCALAR"
		},
		{
			"bufferView":21,
			"componentType":5126,
			"count":60,
			"max":[
				2.5
			],
			"min":[
				0.041666666666666664
			],
			"type":"SCALAR"
		},
		{
			"bufferView":22,
			"componentType":5126,
			"count":60,
			"type":"VEC3"
		},
		{
			"bufferView":23,
			"componentType":5126,
			"count":5,
			"max":[
				0.20833333333333334
			],
			"min":[
				0.041666666666666664
			],
			"type":"SCALAR"
		},
		{
			"bufferView":24,
			"componentType":5126,
			"count":5,
			"type":"VEC3"
		},
		{
			"bufferView":25,
			"componentType":5126,
			"count":5,
			"type":"VEC3"
		},
		{
			"bufferView":26,
			"componentType":5126,
			"count":5,
			"type":"VEC3"
		},
		{
			"bufferView":27,
			"componentType":5126,
			"count":5,
			"type":"VEC3"
		},
		{
			"bufferView":28,
			"componentType":5126,
			"count":5,
			"type":"VEC3"
		},
		{
			"bufferView":29,
			"componentType":5126,
			"count":5,
			"type":"VEC3"
		},
		{
			"bufferView":30,
			"componentType":5126,
			"count":60,
			"type":"VEC3"
		},
		{
			"bufferView":31,
			"componentType":5126,
			"count":5,
			"type":"VEC3"
		}
	],
	"bufferViews":[
		{
			"buffer":0,
			"byteLength":11520,
			"byteOffset":0,
			"target":34962
		},
		{
			"buffer":0,
			"byteLength":11520,
			"byteOffset":11520,
			"target":34962
		},
		{
			"buffer":0,
			"byteLength":7680,
			"byteOffset":23040,
			"target":34962
		},
		{
			"buffer":0,
			"byteLength":5364,
			"byteOffset":30720,
			"target":34963
		},
		{
			"buffer":0,
			"byteLength":12624,
			"byteOffset":36084,
			"target":34962
		},
		{
			"buffer":0,
			"byteLength":12624,
			"byteOffset":48708,
			"target":34962
		},
		{
			"buffer":0,
			"byteLength":8416,
			"byteOffset":61332,
			"target":34962
		},
		{
			"buffer":0,
			"byteLength":6000,
			"byteOffset":69748,
			"target":34963
		},
		{
			"buffer":0,
			"byteLength":4596,
			"byteOffset":75748,
			"target":34962
		},
		{
			"buffer":0,
			"byteLength":4596,
			"byteOffset":80344,
			"target":34962
		},
		{
			"buffer":0,
			"byteLength":3064,
			"byteOffset":84940,
			"target":34962
		},
		{
			"buffer":0,
			"byteLength":1428,
			"byteOffset":88004,
			"target":34963
		},
		{
			"buffer":0,
			"byteLength":22860,
			"byteOffset":89432,
			"target":34962
		},
		{
			"buffer":0,
			"byteLength":22860,
			"byteOffset":112292,
			"target":34962
		},
		{
			"buffer":0,
			"byteLength":19200,
			"byteOffset":135152,
			"target":34963
		},
		{
			"buffer":0,
			"byteLength":10776,
			"byteOffset":154352,
			"target":34962
		},
		{
			"buffer":0,
			"byteLength":10776,
			"byteOffset":165128,
			"target":34962
		},
		{
			"buffer":0,
			"byteLength":10752,
			"byteOffset":175904,
			"target":34963
		},
		{
			"buffer":0,
			"byteLength":4608,
			"byteOffset":186656,
			"target":34962
		},
		{
			"buffer":0,
			"byteLength":4608,
			"byteOffset":191264,
			"target":34962
		},
		{
			"buffer":0,
			"byteLength":4608,
			"byteOffset":195872,
			"target":34963
		},
		{
			"buffer":0,
			"byteLength":240,
			"byteOffset":200480
		},
		{
			"buffer":0,
			"byteLength":720,
			"byteOffset":200720
		},
		{
			"buffer":0,
			"byteLength":20,
			"byteOffset":201440
		},
		{
			"buffer":0,
			"byteLength":60,
			"byteOffset":201460
		},
		{
			"buffer":0,
			"byteLength":60,
			"byteOffset":201520
		},
		{
			"buffer":0,
			"byteLength":60,
			"byteOffset":201580
		},
		{
			"buffer":0,
			"byteLength":60,
			"byteOffset":201640
		},
		{
			"buffer":0,
			"byteLength":60,
			"byteOffset":201700
		},
		{
			"buffer":0,
			"byteLength":60,
			"byteOffset":201760
		},
		{
			"buffer":0,
			"byteLength":720,
			"byteOffset":201820
		},
		{
			"buffer":0,
			"byteLength":60,
			"byteOffset":202540
		}
	],
	"samplers":[
		{
			"magFilter":9729,
			"minFilter":9987
		}
	],
	"buffers":[
		{
			"byteLength":202600,
			"uri":"scene.bin"
		}
	]
}
